<svg id="visual" viewBox="0 0 900 600" width="900" height="600" xmlns="http://www.w3.org/2000/svg" xmlns:xlink="http://www.w3.org/1999/xlink" version="1.1"><rect x="0" y="0" width="900" height="600" fill="#ffffff"></rect><defs><linearGradient id="grad1_0" x1="33.3%" y1="0%" x2="100%" y2="100%"><stop offset="20%" stop-color="#ffffff" stop-opacity="1"></stop><stop offset="80%" stop-color="#ffffff" stop-opacity="1"></stop></linearGradient></defs><defs><linearGradient id="grad2_0" x1="0%" y1="0%" x2="66.7%" y2="100%"><stop offset="20%" stop-color="#ffffff" stop-opacity="1"></stop><stop offset="80%" stop-color="#ffffff" stop-opacity="1"></stop></linearGradient></defs><g transform="translate(900, 0)"><path d="M0 486.7C-62.8 480 -125.6 473.2 -186.3 449.7C-246.9 426.2 -305.4 386.1 -333 333C-360.7 280 -357.4 214.2 -377.9 156.5C-398.3 98.9 -442.5 49.4 -486.7 0L0 0Z" fill="#FBAE3C"></path></g><g transform="translate(0, 600)"><path d="M0 -486.7C67.8 -484.3 135.6 -481.8 186.3 -449.7C236.9 -417.6 270.5 -355.8 306.2 -306.2C341.9 -256.5 379.7 -218.9 410.2 -169.9C440.7 -120.9 463.7 -60.4 486.7 0L0 0Z" fill="#FBAE3C"></path></g></svg>